<?xml version="1.0" standalone="no"?>
<!DOCTYPE svg PUBLIC "-//W3C//DTD SVG 20010904//EN"
 "http://www.w3.org/TR/2001/REC-SVG-20010904/DTD/svg10.dtd">
<svg version="1.0" xmlns="http://www.w3.org/2000/svg"
 width="500.000000pt" height="500.000000pt" viewBox="0 0 500.000000 500.000000"
 preserveAspectRatio="xMidYMid meet">
<metadata>
Created by potrace 1.14, written by Peter Selinger 2001-2017
</metadata>
<g transform="translate(0.000000,500.000000) scale(0.100000,-0.100000)"
fill="#000000" stroke="none">
<path d="M2393 4231 c-46 -29 -55 -91 -19 -135 19 -23 46 -30 98 -27 28 2 75
49 82 82 7 38 -6 64 -44 84 -39 20 -79 19 -117 -4z"/>
<path d="M2254 4020 c-24 -5 -29 -10 -27 -30 5 -57 5 -87 -2 -114 -7 -25 -4
-33 19 -51 25 -20 28 -29 33 -106 2 -46 5 -163 6 -259 l2 -175 -60 -104 c-33
-58 -69 -119 -80 -137 -11 -17 -35 -56 -53 -85 -18 -30 -58 -94 -89 -144 -30
-49 -102 -169 -160 -265 -57 -96 -108 -182 -113 -190 -6 -8 -13 -22 -17 -30
-4 -8 -19 -35 -33 -61 -38 -63 -66 -113 -168 -299 -92 -167 -187 -365 -182
-378 1 -1 -1 -15 -5 -31 -12 -58 -12 -136 2 -190 7 -31 15 -61 16 -66 14 -60
129 -188 226 -255 64 -43 190 -105 198 -97 7 8 114 -28 111 -37 -2 -5 -16 -10
-33 -11 -210 -14 -333 -24 -364 -30 -20 -4 -71 29 -71 45 0 5 -23 43 -51 85
-53 77 -94 118 -113 112 -16 -5 -44 -58 -49 -94 -3 -17 -8 -37 -12 -42 -3 -6
-8 -20 -10 -31 -4 -23 -16 -40 -68 -100 -32 -37 -43 -44 -80 -46 -23 -2 -42
-4 -42 -4 0 -2 -8 -3 -123 -15 -41 -4 -87 -11 -103 -15 -16 -5 -31 -8 -33 -7
-3 1 -7 -1 -11 -5 -10 -10 59 -26 143 -34 26 -3 65 -7 87 -10 22 -3 207 -8
410 -11 277 -4 374 -8 385 -18 24 -20 91 -33 215 -41 125 -9 1066 -12 1101 -4
19 5 37 4 40 -1 3 -5 10 -6 17 -2 6 4 34 8 62 9 162 9 234 21 242 40 4 11 59
14 287 14 154 1 301 2 326 4 154 12 201 18 253 28 35 6 55 14 49 20 -5 5 -49
16 -98 24 -51 9 -101 23 -116 34 -17 13 -51 22 -95 25 -67 6 -69 7 -120 60
-40 42 -58 54 -75 51 -13 -3 -26 -5 -29 -5 -12 -2 -49 -39 -49 -49 0 -21 -38
-34 -60 -20 -11 7 -20 16 -20 19 0 16 -41 15 -60 -1 -17 -15 -33 -17 -88 -13
-91 6 -125 9 -209 17 -63 7 -95 11 -152 18 -17 2 16 28 36 28 22 0 181 77 230
112 55 39 120 101 149 143 25 34 75 122 74 130 0 3 0 6 1 8 13 42 13 166 0
214 -6 21 -29 69 -51 107 -43 74 -64 117 -75 153 -5 18 1 27 30 45 43 28 45
64 4 87 -22 12 -30 12 -57 0 -17 -7 -28 -18 -25 -24 2 -5 -5 1 -16 15 -11 14
-21 29 -21 33 0 5 -8 21 -19 35 -34 50 -78 138 -75 155 1 10 -1 15 -4 13 -4
-2 -15 13 -24 35 -17 41 -16 43 17 30 28 -12 55 5 55 34 0 18 -6 25 -20 26
-11 1 -26 2 -32 3 -7 1 -18 -10 -25 -24 -9 -19 -12 -21 -13 -7 0 18 -98 211
-145 287 -12 19 -25 42 -28 50 -4 8 -16 29 -26 45 -63 102 -330 577 -343 610
-12 32 -15 74 -12 215 5 261 10 320 29 342 33 39 40 66 21 87 -16 17 -16 21 0
61 28 68 24 69 -265 67 -136 -1 -260 -4 -277 -7z"/>
<path d="M3130 3737 c0 -9 7 -14 15 -13 20 3 20 20 1 24 -9 2 -16 -3 -16 -11z"/>
<path d="M3072 3643 c-16 -6 -46 -63 -33 -63 6 0 8 -6 5 -13 -14 -36 53 -65
96 -41 14 7 21 14 15 15 -30 4 -41 3 -52 -5 -8 -5 -13 -4 -13 3 0 6 -5 10 -11
9 -6 -2 -13 8 -15 22 -3 18 -2 21 5 10 5 -8 7 -18 4 -24 -4 -5 -1 -6 6 -2 7 5
10 14 7 22 -6 16 10 19 19 4 4 -6 10 -8 15 -5 4 3 13 -2 20 -10 7 -8 17 -12
22 -9 6 4 5 10 -3 15 -10 6 -11 9 -1 9 18 0 15 35 -6 53 -18 16 -53 21 -80 10z
m68 -45 c0 -4 -6 -8 -14 -8 -8 0 -17 4 -20 8 -2 4 4 8 15 8 10 0 19 -4 19 -8z"/>
<path d="M3120 3560 c0 -5 5 -10 11 -10 5 0 7 5 4 10 -3 6 -8 10 -11 10 -2 0
-4 -4 -4 -10z"/>
<path d="M3310 3430 c-9 -6 -10 -10 -3 -10 6 0 15 5 18 10 8 12 4 12 -15 0z"/>
<path d="M3333 3359 c-12 -12 -6 -40 11 -51 6 -4 18 0 28 9 14 12 15 19 5 34
-13 22 -28 24 -44 8z"/>
<path d="M3340 3262 c-22 -7 -30 -25 -18 -39 14 -17 37 -16 44 1 8 21 -8 44
-26 38z"/>
<path d="M3307 3086 c-51 -19 -67 -34 -90 -86 -25 -55 -25 -114 -2 -164 19
-39 86 -96 114 -96 10 0 5 -10 -17 -30 -26 -23 -32 -35 -26 -53 10 -35 24 -47
54 -47 50 0 79 60 45 94 -13 13 -13 15 7 22 13 4 28 9 34 10 71 13 133 91 139
175 9 140 -116 225 -258 175z"/>
<path d="M3601 2603 c-12 -11 -23 -34 -25 -55 -4 -32 -1 -40 22 -56 15 -10 33
-17 40 -16 6 1 18 2 26 3 15 1 46 59 46 85 0 16 -30 40 -66 50 -13 4 -29 0
-43 -11z"/>
<path d="M3421 2551 c-10 -10 -20 -23 -22 -28 -2 -6 -17 -16 -34 -24 -40 -19
-55 -62 -30 -89 28 -30 60 -25 91 15 14 19 32 35 39 35 6 0 19 8 28 18 49 54
-21 124 -72 73z"/>
<path d="M3499 2261 c-73 -23 -103 -70 -94 -146 8 -67 47 -106 111 -112 43 -4
53 -2 80 23 40 37 58 84 51 135 -6 47 -29 76 -74 95 -36 15 -37 16 -74 5z"/>
</g>
</svg>
